<svg xmlns="http://www.w3.org/2000/svg" xmlns:svg="http://www.w3.org/2000/svg" xmlns:xlink="http://www.w3.org/1999/xlink" version="1.0" height="2020.0000000000002pt" width="1109.9999999999995pt" viewBox="1025 -43 1117.9999999999995 2026.0000000000002" ><defs><style type="text/css">
            @font-face {
                font-family: 'noto_regular';
                src: url('https://app.creately.com/diagram/assets/fonts/noto/noto-regular.woff') format('woff'),
                     url('https://app.creately.com/diagram/assets/fonts/noto/noto-regular.woff2') format('woff2');
                font-weight: normal;
                font-style: normal;
            }
        p {
            margin: 0;
        }
        </style></defs><defs><style>
            span{ display: inline-block; }
        </style></defs><g id="5LN5SU5ugcZ"><g transform="translate(1300 -40)"><path d="M 65.00000000000001,130.00000000000003 L 65.00000000000001,130.00000000000003 L 65.00000000000001,130.00000000000003 A 65.00000000000001 65.00000000000001 0 0 1 0 65.00000000000003 L 0,65.00000000000001 L 0,65.00000000000003 A 65.00000000000001 65.00000000000001 0 0 1 65.00000000000001 0 L 134.99999999999983,0 L 134.99999999999983,0 L 134.99999999999983,0 A 65.00000000000001 65.00000000000001 0 0 1 199.99999999999983 65.00000000000001 L 199.99999999999983,64.99999999999999 L 199.99999999999983,65.00000000000001 A 65.00000000000001 65.00000000000001 0 0 1 134.99999999999983 130.00000000000003 L 65.00000000000001,130.00000000000003 Z" fill="rgb(50,83,100)" stroke="#062F44" stroke-width="2" stroke-linecap="round" stroke-linejoin="round"/></g><g transform="translate(1350.605, 12.500000000000014) rotate(0, 49.395, 12.5)" width="98.79" height="25"><text text-decoration="none" x="2.395000000000003" fill="#ffffff" font-size="14pt" font-family="noto_regular"  y="17">Start&#160;</text><text text-decoration="none" x="46.395" fill="#ffffff" font-size="14pt" font-family="noto_regular"  y="17">Game</text><text text-decoration="none" x="96.39500000000001" fill="#4b4b4b" font-size="10pt" font-family="noto_regular"  y="17"></text></g></g><g id="Vzh5YDqcCA7"><g transform="translate(1290 200.00000000000006)"><path d="M 109.99999999423342,0 L 0,100.0000000000012 L 109.99999999423342,200.0000000000024 L 219.99999998846684,100.0000000000012 L 109.99999999423342,0 Z" fill="rgb(111,207,218)" stroke="#54A5AE" stroke-width="2" stroke-linecap="round" stroke-linejoin="round"/></g><g transform="translate(1326.7549999942335, 250.00000000000125) rotate(0, 73.245, 50)" width="146.49" height="100"><text text-decoration="none" x="41.745000000000005" fill="#ffffff" font-size="14pt" font-family="noto_regular"  y="17">Decide&#160;</text><text text-decoration="none" x="104.745" fill="#ffffff" font-size="14pt" font-family="noto_regular"  y="17"></text><text text-decoration="none" x="2.2450000000000045" fill="#ffffff" font-size="14pt" font-family="noto_regular"  y="39">Which&#160;</text><text text-decoration="none" x="59.245000000000005" fill="#ffffff" font-size="14pt" font-family="noto_regular"  y="39">one&#160;</text><text text-decoration="none" x="95.245" fill="#ffffff" font-size="14pt" font-family="noto_regular"  y="39">Goes&#160;</text><text text-decoration="none" x="144.245" fill="#ffffff" font-size="14pt" font-family="noto_regular"  y="39"></text><text text-decoration="none" x="2.2450000000000045" fill="#ffffff" font-size="14pt" font-family="noto_regular"  y="61">First&#160;</text><text text-decoration="none" x="45.245000000000005" fill="#ffffff" font-size="14pt" font-family="noto_regular"  y="61">and&#160;</text><text text-decoration="none" x="81.245" fill="#ffffff" font-size="14pt" font-family="noto_regular"  y="61">Second</text><text text-decoration="none" x="144.245" fill="#ffffff" font-size="14pt" font-family="noto_regular"  y="61"></text><text text-decoration="none" x="73.245" fill="#4b4b4b" font-size="10pt" font-family="noto_regular"  y="81"></text></g></g><g id="zplQj5uRJPi"><g><path d="M 1400,90 L 1400,135.00000000000006 Q 1400,135.0000000000001 1400,145 Q 1399.9999999952818,154.9999999942334 1399.9999999952818,155.00000000000006 L 1400,200" fill="none" stroke="#7E7E7E" stroke-width="2" stroke-linecap="round" stroke-linejoin="round"/><path d="M 1400,200 L 1405.75,191.30434782608697 L 1394.25,191.30434782608697 Z" fill="rgb(126,126,126)" stroke="#7E7E7E" stroke-width="2" stroke-linecap="round" stroke-linejoin="round"/></g></g><g id="IYJa4BK9CZn"><g transform="translate(1310 560)"><rect x="0" y="0" width="179.99999999999878" height="179.99999999999878" fill="rgb(154,172,81)" stroke="#63712D" stroke-width="2" stroke-linecap="round" stroke-linejoin="round"/></g><g transform="translate(1320.5599999999995, 612.4999999999993) rotate(0, 79.44, 37.5)" width="158.88" height="75"><text text-decoration="none" x="2.9399999999999977" fill="#ffffff" font-size="14pt" font-family="noto_regular"  y="17">Take&#160;</text><text text-decoration="none" x="48.94" fill="#ffffff" font-size="14pt" font-family="noto_regular"  y="17">Turns&#160;</text><text text-decoration="none" x="100.94" fill="#ffffff" font-size="14pt" font-family="noto_regular"  y="17">Going.&#160;</text><text text-decoration="none" x="8.939999999999998" fill="#ffffff" font-size="14pt" font-family="noto_regular"  y="39">Player&#160;</text><text text-decoration="none" x="65.94" fill="#ffffff" font-size="14pt" font-family="noto_regular"  y="39">1&#160;</text><text text-decoration="none" x="81.94" fill="#ffffff" font-size="14pt" font-family="noto_regular"  y="39">is&#160;</text><text text-decoration="none" x="101.94" fill="#ffffff" font-size="14pt" font-family="noto_regular"  y="39">X&#160;</text><text text-decoration="none" x="118.94" fill="#ffffff" font-size="14pt" font-family="noto_regular"  y="39">and&#160;</text><text text-decoration="none" x="10.939999999999998" fill="#ffffff" font-size="14pt" font-family="noto_regular"  y="61">the&#160;</text><text text-decoration="none" x="41.94" fill="#ffffff" font-size="14pt" font-family="noto_regular"  y="61">Player&#160;</text><text text-decoration="none" x="98.94" fill="#ffffff" font-size="14pt" font-family="noto_regular"  y="61">2&#160;</text><text text-decoration="none" x="114.94" fill="#ffffff" font-size="14pt" font-family="noto_regular"  y="61">is&#160;</text><text text-decoration="none" x="134.94" fill="#ffffff" font-size="14pt" font-family="noto_regular"  y="61">O</text><text text-decoration="none" x="147.94" fill="#4b4b4b" font-size="10pt" font-family="noto_regular"  y="61"></text></g></g><g id="hDbRWaTPLNx"><mask id="1d0ea" x="1386" y="386" width="28" height="178" maskUnits="userSpaceOnUse"><rect x="1386" y="386" width="28" height="178" fill="white" />undefinedundefined</mask><g mask="url(#1d0ea)"><path d="M 1400,550 L 1400.162828611907,484.77696414301664 Q 1400.1635564442404,484.4854218039145 1400,475 Q 1399.9999999949873,465 1399.9999999950046,464.7769953051654 L 1400,400" fill="none" stroke="#7E7E7E" stroke-width="2" stroke-linecap="round" stroke-linejoin="round"/><path d="M 1400,550 L 1405.75,541.304347826087 L 1394.25,541.304347826087 Z" fill="rgb(126,126,126)" stroke="#7E7E7E" stroke-width="2" stroke-linecap="round" stroke-linejoin="round"/></g>undefinedundefined</g><g id="IsJwVq2og6A"><g transform="translate(1260.0000000000002 900)"><rect x="0" y="0" width="280" height="120.00000000000001" fill="rgb(131,48,74)" stroke="#530920" stroke-width="2" stroke-linecap="round" stroke-linejoin="round"/></g><g transform="translate(1291.1450000000002, 934.995) rotate(0, 108.855, 25.005)" width="217.71" height="50.01"><text text-decoration="none" x="3.855000000000004" fill="#ffffff" font-size="14pt" font-family="noto_regular"  y="17">The&#160;</text><text text-decoration="none" x="39.855000000000004" fill="#ffffff" font-size="14pt" font-family="noto_regular"  y="17">Result&#160;</text><text text-decoration="none" x="97.855" fill="#ffffff" font-size="14pt" font-family="noto_regular"  y="17">is&#160;</text><text text-decoration="none" x="117.855" fill="#ffffff" font-size="14pt" font-family="noto_regular"  y="17">determined&#160;</text><text text-decoration="none" x="47.855000000000004" fill="#ffffff" font-size="14pt" font-family="noto_regular"  y="39">after&#160;</text><text text-decoration="none" x="91.855" fill="#ffffff" font-size="14pt" font-family="noto_regular"  y="39">9&#160;</text><text text-decoration="none" x="107.855" fill="#ffffff" font-size="14pt" font-family="noto_regular"  y="39">moves.</text><text text-decoration="none" x="169.85500000000002" fill="#4b4b4b" font-size="10pt" font-family="noto_regular"  y="39"></text></g></g><g id="9KTVG12aZF3"><g><path d="M 1400,900 L 1400.0000000000002,829.9999999999993 Q 1400.0000000000002,829.9999999999986 1400,820 Q 1399.9999999999995,810.0000000000001 1399.9999999999995,809.9999999999993 L 1400,740" fill="none" stroke="#7E7E7E" stroke-width="2" stroke-linecap="round" stroke-linejoin="round"/><path d="M 1400,900 L 1405.75,891.304347826087 L 1394.25,891.304347826087 Z" fill="rgb(126,126,126)" stroke="#7E7E7E" stroke-width="2" stroke-linecap="round" stroke-linejoin="round"/></g></g><g id="hp8UdUXaBro"><g transform="translate(1300 1160)"><rect x="0" y="0" width="199.99999999998255" height="130" fill="rgb(95,178,212)" stroke="#0979A7" stroke-width="2" stroke-linecap="round" stroke-linejoin="round" stroke-dasharray="0 0"/></g><g transform="translate(1387.1399999999915, 1212.5) rotate(0, 12.86, 12.5)" width="25.72" height="25"><text text-decoration="none" x="0" fill="#ffffff" font-size="14pt" font-family="noto_regular"  y="17">Tie</text><text text-decoration="none" x="26" fill="#4b4b4b" font-size="10pt" font-family="noto_regular"  y="17"></text></g></g><g id="ZF5JlMp25cc"><g><path d="M 1400,1020 L 1400.0000000000002,1080 Q 1400.0000000000002,1080.0000000000002 1400,1090 Q 1399.9999999999925,1099.9999999999914 1399.9999999999925,1100 L 1400,1160" fill="none" stroke="#7E7E7E" stroke-width="2" stroke-linecap="round" stroke-linejoin="round"/><path d="M 1400,1160 L 1405.75,1151.304347826087 L 1394.25,1151.304347826087 Z" fill="rgb(126,126,126)" stroke="#7E7E7E" stroke-width="2" stroke-linecap="round" stroke-linejoin="round"/></g></g><g id="apP9yDQgkYD"><g transform="translate(1590 1159.9999943661967)"><rect x="0" y="0" width="189.99999999999957" height="130.00000563380328" fill="rgb(95,178,212)" stroke="#0979A7" stroke-width="2" stroke-linecap="round" stroke-linejoin="round" stroke-dasharray="0 0"/></g><g transform="translate(1626.5049999999999, 1212.4999971830985) rotate(0, 58.495, 12.5)" width="116.99" height="25"><text text-decoration="none" x="0.9949999999999974" fill="#ffffff" font-size="14pt" font-family="noto_regular"  y="17">Player&#160;</text><text text-decoration="none" x="57.995" fill="#ffffff" font-size="14pt" font-family="noto_regular"  y="17">2&#160;</text><text text-decoration="none" x="73.995" fill="#ffffff" font-size="14pt" font-family="noto_regular"  y="17">Wins</text><text text-decoration="none" x="115.995" fill="#4b4b4b" font-size="10pt" font-family="noto_regular"  y="17"></text></g></g><g id="RjTQX6oKEi4"><g><path d="M 1540,960 L 1674.9999999999998,960 Q 1684.9999999999998,960 1684.9999999999998,970 L 1685,1160" fill="none" stroke="#7E7E7E" stroke-width="2" stroke-linecap="round" stroke-linejoin="round"/><path d="M 1685,1160 L 1690.75,1151.304347826087 L 1679.25,1151.304347826087 Z" fill="rgb(126,126,126)" stroke="#7E7E7E" stroke-width="2" stroke-linecap="round" stroke-linejoin="round"/></g></g><g id="ueDMH8afKOr"><g transform="translate(1030 1159.9999943661967)"><rect x="0" y="0" width="180" height="129.99999906103287" fill="rgb(95,178,212)" stroke="#0979A7" stroke-width="2" stroke-linecap="round" stroke-linejoin="round" stroke-dasharray="0 0"/></g><g transform="translate(1061.505, 1212.499993896713) rotate(0, 58.495, 12.5)" width="116.99" height="25"><text text-decoration="none" x="0.9949999999999974" fill="#ffffff" font-size="14pt" font-family="noto_regular"  y="17">Player&#160;</text><text text-decoration="none" x="57.995" fill="#ffffff" font-size="14pt" font-family="noto_regular"  y="17">1&#160;</text><text text-decoration="none" x="73.995" fill="#ffffff" font-size="14pt" font-family="noto_regular"  y="17">Wins</text><text text-decoration="none" x="115.995" fill="#4b4b4b" font-size="10pt" font-family="noto_regular"  y="17"></text></g></g><g id="NdkeYxmhzTV"><g><path d="M 1260,960 L 1130,960 Q 1120,960 1120,970 L 1120,1160" fill="none" stroke="#7E7E7E" stroke-width="2" stroke-linecap="round" stroke-linejoin="round"/><path d="M 1120,1160 L 1125.75,1151.304347826087 L 1114.25,1151.304347826087 Z" fill="rgb(126,126,126)" stroke="#7E7E7E" stroke-width="2" stroke-linecap="round" stroke-linejoin="round"/></g></g><g id="Q7lULsheVwR"><g transform="translate(1270 1460)"><path d="M 129.99999976525825,0 L 0,109.99999999999241 L 129.99999976525825,219.99999999998482 L 259.9999995305165,109.99999999999241 L 129.99999976525825,0 Z" fill="rgb(111,207,218)" stroke="#54A5AE" stroke-width="2" stroke-linecap="round" stroke-linejoin="round"/></g><g transform="translate(1293.1149997652583, 1532.4999999999923) rotate(0, 106.885, 37.5)" width="213.77" height="75"><text text-decoration="none" x="41.885000000000005" fill="#ffffff" font-size="14pt" font-family="noto_regular"  y="17">Select&#160;</text><text text-decoration="none" x="98.885" fill="#ffffff" font-size="14pt" font-family="noto_regular"  y="17">to&#160;</text><text text-decoration="none" x="120.885" fill="#ffffff" font-size="14pt" font-family="noto_regular"  y="17">finish&#160;</text><text text-decoration="none" x="171.885" fill="#ffffff" font-size="14pt" font-family="noto_regular"  y="17"></text><text text-decoration="none" x="5.385000000000005" fill="#ffffff" font-size="14pt" font-family="noto_regular"  y="39">the&#160;</text><text text-decoration="none" x="36.385000000000005" fill="#ffffff" font-size="14pt" font-family="noto_regular"  y="39">game&#160;</text><text text-decoration="none" x="89.385" fill="#ffffff" font-size="14pt" font-family="noto_regular"  y="39">or&#160;</text><text text-decoration="none" x="111.385" fill="#ffffff" font-size="14pt" font-family="noto_regular"  y="39">Start&#160;</text><text text-decoration="none" x="155.385" fill="#ffffff" font-size="14pt" font-family="noto_regular"  y="39">a&#160;</text><text text-decoration="none" x="170.385" fill="#ffffff" font-size="14pt" font-family="noto_regular"  y="39">New&#160;</text><text text-decoration="none" x="81.885" fill="#ffffff" font-size="14pt" font-family="noto_regular"  y="61">Game</text><text text-decoration="none" x="131.885" fill="#4b4b4b" font-size="10pt" font-family="noto_regular"  y="61"></text></g></g><g id="ufKzCjfW2YJ"><g><path d="M 1400,1290 L 1399.9999999999923,1365 Q 1399.9999999999923,1365.0000000000086 1400,1375 Q 1399.9999997928749,1384.9999997652583 1399.9999997928749,1385 L 1400,1460" fill="none" stroke="#7E7E7E" stroke-width="2" stroke-linecap="round" stroke-linejoin="round"/><path d="M 1400,1460 L 1405.75,1451.304347826087 L 1394.25,1451.304347826087 Z" fill="rgb(126,126,126)" stroke="#7E7E7E" stroke-width="2" stroke-linecap="round" stroke-linejoin="round"/></g></g><g id="UyBhSkEtsDu"><g><path d="M 1120,1290 L 1120,1559.9999999999923 Q 1120,1569.9999999999923 1130,1569.9999999999927 L 1270,1570" fill="none" stroke="#7E7E7E" stroke-width="2" stroke-linecap="round" stroke-linejoin="round"/><path d="M 1270,1570 L 1261.304347826087,1564.25 L 1261.304347826087,1575.75 Z" fill="rgb(126,126,126)" stroke="#7E7E7E" stroke-width="2" stroke-linecap="round" stroke-linejoin="round"/></g></g><g id="s5XO2knrd4G"><mask id="47a61" x="1516" y="1276" width="183" height="308" maskUnits="userSpaceOnUse"><rect x="1516" y="1276" width="183" height="308" fill="white" />undefined</mask><g mask="url(#47a61)"><path d="M 1685,1290 L 1684.9999999999998,1559.9999999999923 Q 1684.9999999999998,1569.9999999999923 1674.9999999999998,1569.9999999999927 L 1530,1570" fill="none" stroke="#7E7E7E" stroke-width="2" stroke-linecap="round" stroke-linejoin="round"/><path d="M 1530,1570 L 1538.695652173913,1575.75 L 1538.695652173913,1564.25 Z" fill="rgb(126,126,126)" stroke="#7E7E7E" stroke-width="2" stroke-linecap="round" stroke-linejoin="round"/></g>undefined</g><g id="9RStO8eoe0W"><g transform="translate(1300 1850.0000000000002)"><path d="M 65.00000000000001,130.00000000000003 L 65.00000000000001,130.00000000000003 L 65.00000000000001,130.00000000000003 A 65.00000000000001 65.00000000000001 0 0 1 0 65.00000000000003 L 0,65.00000000000001 L 0,65.00000000000003 A 65.00000000000001 65.00000000000001 0 0 1 65.00000000000001 0 L 134.99999999999983,0 L 134.99999999999983,0 L 134.99999999999983,0 A 65.00000000000001 65.00000000000001 0 0 1 199.99999999999983 65.00000000000001 L 199.99999999999983,64.99999999999999 L 199.99999999999983,65.00000000000001 A 65.00000000000001 65.00000000000001 0 0 1 134.99999999999983 130.00000000000003 L 65.00000000000001,130.00000000000003 Z" fill="rgb(50,83,100)" stroke="#062F44" stroke-width="2" stroke-linecap="round" stroke-linejoin="round"/></g><g transform="translate(1383.295, 1902.5000000000002) rotate(0, 16.705, 12.5)" width="33.41" height="25"><text text-decoration="none" x="0.7049999999999983" fill="#ffffff" font-size="14pt" font-family="noto_regular"  y="17">End</text><text text-decoration="none" x="32.705" fill="#4b4b4b" font-size="10pt" font-family="noto_regular"  y="17"></text></g></g><g id="a0EE6VbTZZi"><g><path d="M 1400,1680 L 1399.9999997945108,1750.2464788732314 Q 1399.9999997937898,1750.4929577464627 1400,1760 Q 1400.1649764027352,1769.9365839634281 1400.1642467669735,1770.2464511509324 L 1400,1840" fill="none" stroke="#7E7E7E" stroke-width="2" stroke-linecap="round" stroke-linejoin="round"/><path d="M 1400,1840 L 1405.75,1831.304347826087 L 1394.25,1831.304347826087 Z" fill="rgb(126,126,126)" stroke="#7E7E7E" stroke-width="2" stroke-linecap="round" stroke-linejoin="round"/></g></g><g id="sUytKcVDem6"><g transform="translate(1950 1500)"><rect x="0" y="0" width="189.99999999999957" height="130.00000563380328" fill="rgb(131,48,74)" stroke="#530920" stroke-width="2" stroke-linecap="round" stroke-linejoin="round" stroke-dasharray="0 0"/></g><g transform="translate(1996.8649999999998, 1552.5000028169015) rotate(0, 48.135, 12.5)" width="96.27" height="25"><text text-decoration="none" x="1.634999999999998" fill="#ffffff" font-size="14pt" font-family="noto_regular"  y="17">New&#160;</text><text text-decoration="none" x="44.635" fill="#ffffff" font-size="14pt" font-family="noto_regular"  y="17">Game</text><text text-decoration="none" x="94.63499999999999" fill="#4b4b4b" font-size="10pt" font-family="noto_regular"  y="17"></text></g></g><g id="xta58AzfSMT"><g><path d="M 1688,1565 L 1809,1565 Q 1809,1565 1819,1565 Q 1828.9999971830985,1565.0000026018708 1829,1565.0000026018708 L 1950,1565" fill="none" stroke="#7E7E7E" stroke-width="2" stroke-linecap="round" stroke-linejoin="round"/><path d="M 1950,1565 L 1941.304347826087,1559.25 L 1941.304347826087,1570.75 Z" fill="rgb(126,126,126)" stroke="#7E7E7E" stroke-width="2" stroke-linecap="round" stroke-linejoin="round"/></g></g><g id="ibPGm4zF3Rz"><g><path d="M 2045,1500 L 2044.9999999999998,35.000000000000014 Q 2044.9999999999998,25.000000000000014 2034.9999999999998,25.000000000000014 L 1500,25" fill="none" stroke="#7E7E7E" stroke-width="2" stroke-linecap="round" stroke-linejoin="round"/><path d="M 1500,25 L 1508.695652173913,30.75 L 1508.695652173913,19.25 Z" fill="rgb(126,126,126)" stroke="#7E7E7E" stroke-width="2" stroke-linecap="round" stroke-linejoin="round"/></g></g></svg>